<svg width="75" height="74" viewBox="0 0 75 74" fill="none" xmlns="http://www.w3.org/2000/svg">
<g clip-path="url(#clip0_10845_17042)">
<path d="M49.5732 0V6.03203H68.64V25.1234H74.7414V0H49.5732Z" fill="#D03B30"/>
<path d="M6.10137 48.7841H0V73.8924H25.641V67.8604H6.10137V48.7841Z" fill="#D03B30"/>
<path d="M68.64 67.8604H49.5732V73.8924H74.7414V48.7841H68.64V67.8604Z" fill="#D03B30"/>
<path d="M0 0V25.1234H6.10137V6.03203H25.641V0H6.10137H0Z" fill="#D03B30"/>
<path d="M34.9905 45.7342L32.8784 43.6221L30.7664 41.5101L24.2504 34.9941L22.1384 37.1062L20.0263 39.2183L26.5422 45.7342L28.6543 47.8463L30.7664 49.9583L37.2823 56.4743L39.3944 54.3622L41.5064 52.2501L34.9905 45.7342Z" fill="white"/>
<path d="M43.818 50.0435L45.9468 47.9483L48.0756 45.8532L54.6433 39.3894L52.5482 37.2606L50.453 35.1317L43.8853 41.5955L41.7565 43.6907L39.6277 45.7858L33.06 52.2496L35.1551 54.3785L37.2503 56.5073L43.818 50.0435Z" fill="white"/>
<path d="M40.1947 44.177L40.2019 41.1901L40.2091 38.2032L40.1725 20.9941L37.1856 20.9869L34.1987 20.9797L34.2353 38.1888L34.2281 41.1757L34.2209 44.1626L34.1987 53.3775L37.1856 53.3847L40.1725 53.3919L40.1947 44.177Z" fill="white"/>
</g>
<defs>
<clipPath id="clip0_10845_17042">
<rect width="74.7417" height="73.8924" fill="white"/>
</clipPath>
</defs>
</svg>
