<svg width="50" height="51" viewBox="0 0 50 51" fill="none" xmlns="http://www.w3.org/2000/svg">
<rect width="50" height="50.1166" rx="10" fill="white"/>
<path fill-rule="evenodd" clip-rule="evenodd" d="M30.3329 20.2197C30.3329 23.0649 27.9354 25.3794 24.9862 25.3794C22.0375 25.3794 19.6396 23.0649 19.6396 20.2197C19.6396 17.3735 22.0375 15.0583 24.9862 15.0583C27.9354 15.0583 30.3329 17.3735 30.3329 20.2197ZM30.268 28.3508C29.3012 28.937 28.2514 29.3525 27.163 29.592L30.1522 32.4772C30.7645 33.0671 30.7645 34.0251 30.1522 34.6154C29.5404 35.206 28.5492 35.206 27.9379 34.6154L24.9994 31.78L22.0634 34.6154C21.9062 34.767 21.7235 34.8798 21.5287 34.9536C21.3446 35.0231 21.1498 35.058 20.955 35.058C20.5541 35.058 20.1537 34.9103 19.8476 34.6154C19.2357 34.0251 19.2357 33.0678 19.8471 32.4772L22.8363 29.592C21.7479 29.3525 20.6981 28.9362 19.7313 28.3508C18.9999 27.9055 18.7802 26.9726 19.2411 26.2658C19.7006 25.5581 20.6674 25.3449 21.4003 25.7903C23.5893 27.1193 26.4091 27.1196 28.599 25.7903C29.3319 25.3449 30.2982 25.5581 30.7592 26.2658C31.2201 26.9721 30.9994 27.9055 30.268 28.3508ZM27.2001 20.2185C27.2001 19.04 26.2069 18.0818 24.9862 18.0818C23.7665 18.0818 22.7724 19.04 22.7724 20.2185C22.7724 21.3957 23.7665 22.3547 24.9862 22.3547C26.2069 22.3547 27.2001 21.3957 27.2001 20.2185Z" fill="black"/>
</svg>
